<svg width="32" height="32" viewBox="0 0 32 32" fill="none" xmlns="http://www.w3.org/2000/svg">
  <rect width="32" height="32" rx="8" fill="#4F46E5"/>
  <path d="M24 12.5C24 13.3284 23.3284 14 22.5 14C21.6716 14 21 13.3284 21 12.5C21 11.6716 21.6716 11 22.5 11C23.3284 11 24 11.6716 24 12.5Z" fill="white"/>
  <path d="M24 19.5C24 20.3284 23.3284 21 22.5 21C21.6716 21 21 20.3284 21 19.5C21 18.6716 21.6716 18 22.5 18C23.3284 18 24 18.6716 24 19.5Z" fill="white"/>
  <path d="M11 12.5C11 13.3284 10.3284 14 9.5 14C8.67157 14 8 13.3284 8 12.5C8 11.6716 8.67157 11 9.5 11C10.3284 11 11 11.6716 11 12.5Z" fill="white"/>
  <path d="M11 19.5C11 20.3284 10.3284 21 9.5 21C8.67157 21 8 20.3284 8 19.5C8 18.6716 8.67157 18 9.5 18C10.3284 18 11 18.6716 11 19.5Z" fill="white"/>
  <path fill-rule="evenodd" clip-rule="evenodd" d="M9.5 8C8.67157 8 8 8.67157 8 9.5V10H24V9.5C24 8.67157 23.3284 8 22.5 8H9.5ZM24 22V16H8V22C8 22.8284 8.67157 23.5 9.5 23.5H22.5C23.3284 23.5 24 22.8284 24 22Z" fill="white"/>
</svg> 